# xmcd
#
# Track frame offsets:
#	150
#	26233
#	49193
#	68725
#	97043
#	122135
#	142552
#	172478
#	195274
#	226816
#
# Disc length: 3355 seconds
#
# Revision: 2
# Processed by: cddbd v1.5.2PL0 Copyright (c) Steve Scherf et al.
# Submitted via: EZCDAudioConverter 2.5.0.1
#
DISCID=860d190a
DTITLE=Hai Phuong - Hoa Tau Tranh Sao Bau - Tinh Ca Que Huong
DYEAR=2006
DGENRE=Vietnamese instrumental
TTITLE0=Bai ca dat phuong Nam
TTITLE1=Chiec ao ba ba
TTITLE2=Hanh trinh tren dat phu sa
TTITLE3=Que huong
TTITLE4=Mat Hue xua
TTITLE5=Tinh am chieu que
TTITLE6=Goi nho que huong
TTITLE7=Gio mat trang thanh
TTITLE8=Hue thuong
TTITLE9=Tinh ca dat Bac
EXTD=
EXTT0=
EXTT1=
EXTT2=
EXTT3=
EXTT4=
EXTT5=
EXTT6=
EXTT7=
EXTT8=
EXTT9=
PLAYORDER=
